<?xml version="1.0" encoding="utf-8"?>
<!-- Generator: Adobe Illustrator 24.2.1, SVG Export Plug-In . SVG Version: 6.00 Build 0)  -->
<svg version="1.1" id="Layer_1" xmlns="http://www.w3.org/2000/svg" xmlns:xlink="http://www.w3.org/1999/xlink" x="0px" y="0px"
	 viewBox="0 0 191 62" style="enable-background:new 0 0 191 62;" xml:space="preserve">
<style type="text/css">
	.st0{fill:#F7AF1B;}
	.st1{fill:#FFFFFF;}
</style>
<g>
	<g id="XMLID_00000090274357887508486980000013972454766656656035_">
		<path class="st0" d="M40.2,1.1H7.1C3.7,1.1,1,3.8,1,7.2v29.1c0,3.4,2.7,6.1,6.1,6.1h33.2c3.4,0,6.1-2.7,6.1-6.1V7.2
			C46.3,3.8,43.6,1.1,40.2,1.1 M7.1,10.3c-1.8,0-3.2-1.4-3.2-3.2c0-1.8,1.4-3.2,3.2-3.2c1.8,0,3.2,1.4,3.2,3.2
			C10.3,8.9,8.9,10.3,7.1,10.3 M39.7,33.6c0,1.4-1.1,2.5-2.5,2.5H14.4c-1.4,0-2.5-1.1-2.5-2.5V10c0-1.4,1.1-2.5,2.5-2.5h22.9
			c1.4,0,2.5,1.1,2.5,2.5V33.6z"/>
	</g>
	<g>
		<g>
			<path class="st1" d="M55.7,59.7h3.2v0.8h-4v-6.7h0.8V59.7z"/>
			<path class="st1" d="M63.7,60.5c-1.5,0-2.4-0.9-2.4-3v-0.7c0-2.2,0.9-3,2.4-3c1.5,0,2.4,0.9,2.4,3v0.7
				C66.1,59.6,65.2,60.5,63.7,60.5z M62.2,57.5c0,1.7,0.6,2.3,1.6,2.3c1,0,1.6-0.6,1.6-2.3v-0.7c0-1.6-0.6-2.3-1.6-2.3
				c-1,0-1.6,0.6-1.6,2.3V57.5z"/>
			<path class="st1" d="M74.1,53.8v6.7h-0.8l-2.9-5v5h-0.8v-6.7h0.8l2.9,5.1v-5.1H74.1z"/>
			<path class="st1" d="M78.8,60.4h-0.8v-6.7h0.8V60.4z"/>
			<path class="st1" d="M83.3,61l-0.9,0.8v-2.5h0.9V61z"/>
			<path class="st1" d="M92.2,57.9v2.5h-0.8v-6.7h2.1c1.5,0,2.4,0.8,2.4,2.1c0,1.3-0.9,2.1-2.4,2.1H92.2z M93.5,57.1
				c1.1,0,1.6-0.5,1.6-1.3c0-0.8-0.5-1.3-1.6-1.3h-1.3v2.6H93.5z"/>
			<path class="st1" d="M104,53.8v3.9c0,2-0.9,2.8-2.4,2.8c-1.5,0-2.4-0.8-2.4-2.8v-4h0.8v4c0,1.5,0.6,2,1.6,2s1.6-0.6,1.6-2v-4H104
				z"/>
			<path class="st1" d="M112.3,53.8v6.7h-0.8l-2.9-5v5h-0.8v-6.7h0.8l2.9,5.1v-5.1H112.3z"/>
			<path class="st1" d="M120,53.8v0.8h-3.2v2.1h2.9v0.8h-2.9v2.3h3.2v0.8h-4v-6.7H120z"/>
		</g>
		<g id="XMLID_00000050655961683604658640000002483375271299697290_">
			<g id="XMLID_00000124853967076060336410000017766059119403693469_">
				<path class="st1" d="M54.9,1.1h2.2l4.4,10.3l4.3-10.3h2.2v15.8h-2.3V7.1h-0.1l-3.2,7.6h-1.9l-3.2-7.6h0v9.8h-2.3V1.1z"/>
			</g>
			<g id="XMLID_00000126322296604077015300000003730061590779466918_">
				<path class="st1" d="M71.7,1.1H74v15.8h-2.3V1.1z"/>
			</g>
			<g id="XMLID_00000029024922704921946710000009953016293150382513_">
				<path class="st1" d="M80,3.2h-4.2V1.1h10.7v2.1h-4.2v13.7H80V3.2z"/>
			</g>
			<g id="XMLID_00000106129277130609961200000012892101889773286063_">
				<path class="st1" d="M93.8,1.1h2.3v15.8h-2.3V1.1z"/>
			</g>
			<g id="XMLID_00000057858793644246211970000004409147957661283735_">
				<path class="st1" d="M99.5,1.1h2.2l6.9,11.2h0V1.1h2.3v15.8h-2.2l-6.9-11.2h0v11.2h-2.3V1.1z"/>
			</g>
			<g id="XMLID_00000085236277434861131040000018117371241868314287_">
				<path class="st1" d="M114.8,13.1c1.2,1,2.7,1.6,4.3,1.6c2,0,3-0.8,3-2.2c0-1.2-0.6-1.9-2-2.1c-0.6-0.1-1.3-0.2-2-0.3
					c-1.3-0.2-2.3-0.7-3-1.5c-0.7-0.8-1.1-1.8-1.1-2.9c0-1.4,0.4-2.5,1.3-3.3c0.9-0.8,2.1-1.3,3.7-1.3c1.9,0,3.5,0.6,5,1.6l-1.3,2
					c-1.1-0.8-2.4-1.2-3.8-1.2c-0.7,0-1.3,0.2-1.8,0.6c-0.5,0.4-0.8,1-0.8,1.7c0,0.5,0.2,0.9,0.5,1.2c0.3,0.4,0.9,0.6,1.6,0.8
					c0.4,0.1,1,0.2,1.7,0.2c1.4,0.2,2.5,0.7,3.2,1.6c0.7,0.8,1,1.8,1,2.9c-0.1,3-1.9,4.5-5.4,4.6c-2.3,0-4.2-0.7-5.8-2.2L114.8,13.1
					z"/>
			</g>
			<g id="XMLID_00000178200471265538047850000014752101431710227124_">
				<path class="st1" d="M130,3.2h-4.2V1.1h10.7v2.1h-4.2v13.7H130V3.2z"/>
			</g>
			<g id="XMLID_00000096052955139932163610000009144403008366892968_">
				<path class="st1" d="M138.4,1.1h2.3v15.8h-2.3V1.1z"/>
			</g>
			<g id="XMLID_00000097502545543641713430000005815420048651495610_">
				<path class="st1" d="M146.8,3.2h-4.2V1.1h10.7v2.1h-4.2v13.7h-2.3V3.2z"/>
			</g>
			<g id="XMLID_00000119837218248771628600000008547769354160845214_">
				<path class="st1" d="M155,1.1h2.3v10.2c0,1.1,0.3,1.9,0.9,2.5c0.6,0.6,1.3,0.9,2.2,0.9s1.6-0.3,2.2-0.9c0.6-0.6,0.9-1.4,0.9-2.5
					V1.1h2.3v10.4c0,1.7-0.5,3-1.6,3.9c-1,1-2.3,1.5-3.9,1.5c-1.5,0-2.8-0.5-3.8-1.5c-1-1-1.6-2.3-1.6-3.9V1.1z"/>
			</g>
			<g id="XMLID_00000177459538436598041310000000325639884791725976_">
				<path class="st1" d="M171.8,3.2h-4.2V1.1h10.7v2.1h-4.2v13.7h-2.3V3.2z"/>
			</g>
			<g id="XMLID_00000052786455002420840100000002621574932198113932_">
				<path class="st1" d="M180.3,1.1h9.8v2.2h-7.4v4.5h6.4V10h-6.4v4.6h7.4v2.2h-9.8V1.1z"/>
			</g>
		</g>
		<g id="XMLID_00000049217583021636127740000004867927125363553726_">
			<g id="XMLID_00000178884806907243939360000013167837108605535617_">
				<path class="st1" d="M54.9,34.6c0-1.8,0.1-3.1,0.2-3.7c0.1-0.6,0.3-1.1,0.5-1.5c0.4-0.7,1-1.4,1.8-1.9c0.8-0.6,1.8-0.9,3-0.9
					c1.2,0,2.2,0.3,3,0.9c0.8,0.6,1.4,1.2,1.7,1.9c0.3,0.4,0.4,0.9,0.5,1.5c0.1,0.6,0.1,1.8,0.1,3.7c0,1.8,0,3-0.1,3.7
					c-0.1,0.6-0.3,1.1-0.5,1.5c-0.4,0.7-0.9,1.4-1.7,1.9c-0.8,0.6-1.8,0.9-3,0.9c-1.2,0-2.2-0.3-3-0.9c-0.8-0.6-1.4-1.2-1.8-1.9
					c-0.1-0.2-0.2-0.5-0.3-0.7c-0.1-0.2-0.2-0.5-0.2-0.8C54.9,37.6,54.9,36.4,54.9,34.6z M57.2,34.6c0,1.6,0.1,2.6,0.2,3.2
					c0.1,0.5,0.3,1,0.6,1.3c0.2,0.3,0.6,0.6,1,0.8c0.4,0.2,0.9,0.4,1.4,0.4c0.6,0,1-0.1,1.4-0.4c0.4-0.2,0.7-0.5,0.9-0.8
					c0.3-0.3,0.5-0.8,0.6-1.3c0.1-0.5,0.2-1.6,0.2-3.2s-0.1-2.6-0.2-3.2c-0.1-0.5-0.3-1-0.6-1.3c-0.2-0.3-0.5-0.6-0.9-0.8
					c-0.4-0.2-0.9-0.3-1.4-0.3c-0.5,0-1,0.1-1.4,0.3c-0.4,0.2-0.7,0.5-1,0.8c-0.3,0.3-0.5,0.8-0.6,1.3C57.2,31.9,57.2,33,57.2,34.6z
					"/>
			</g>
			<g id="XMLID_00000023272370282709183920000005055488381914508423_">
				<path class="st1" d="M68.9,26.7h9.8v2.2h-7.4v4.7h6.4v2.1h-6.4v6.7h-2.3V26.7z"/>
			</g>
			<g id="XMLID_00000152234192028087685840000006613722066340773277_">
				<path class="st1" d="M86.1,26.7h5.3c2.1,0,3.6,0.9,4.7,2.7c0.4,0.6,0.6,1.2,0.7,1.9c0.1,0.6,0.1,1.8,0.1,3.4
					c0,1.7-0.1,2.9-0.2,3.5c-0.1,0.3-0.1,0.6-0.3,0.9c-0.1,0.3-0.3,0.5-0.4,0.8c-0.4,0.7-1.1,1.4-1.9,1.8c-0.8,0.5-1.8,0.8-2.9,0.8
					h-5.2V26.7z M88.4,40.2h2.8c1.3,0,2.2-0.5,2.8-1.4c0.3-0.3,0.4-0.8,0.5-1.3c0.1-0.5,0.1-1.5,0.1-2.9c0-1.4,0-2.4-0.1-2.9
					c-0.1-0.6-0.3-1.1-0.6-1.4c-0.6-0.9-1.6-1.4-2.7-1.3h-2.8V40.2z"/>
			</g>
			<g id="XMLID_00000169528491805157617900000016640090302716601731_">
				<path class="st1" d="M100.1,26.7h9.8v2.2h-7.4v4.5h6.4v2.1h-6.4v4.6h7.4v2.2h-9.8V26.7z"/>
			</g>
			<g id="XMLID_00000027584268521304391130000001764811230819827381_">
				<path class="st1" d="M112.6,38.6c1.2,1,2.7,1.6,4.3,1.6c2,0,3-0.8,3-2.2c0-1.2-0.6-1.9-2-2.1c-0.6-0.1-1.3-0.2-2-0.3
					c-1.3-0.2-2.3-0.7-3-1.5c-0.7-0.8-1.1-1.8-1.1-2.9c0-1.4,0.4-2.5,1.3-3.3c0.9-0.8,2.1-1.3,3.7-1.3c1.9,0,3.5,0.6,5,1.6l-1.3,2
					c-1.1-0.8-2.4-1.2-3.8-1.2c-0.7,0-1.3,0.2-1.8,0.6c-0.5,0.4-0.8,1-0.8,1.7c0,0.5,0.2,0.9,0.5,1.2c0.3,0.4,0.9,0.6,1.6,0.8
					c0.4,0.1,1,0.2,1.7,0.2c1.4,0.2,2.5,0.7,3.2,1.6c0.7,0.8,1,1.8,1,2.9c-0.1,3-1.9,4.5-5.4,4.6c-2.3,0-4.2-0.7-5.8-2.2L112.6,38.6
					z"/>
			</g>
			<g id="XMLID_00000122704516097662180980000009685983342205215402_">
				<path class="st1" d="M125.1,26.7h2.3v15.8h-2.3V26.7z"/>
			</g>
			<g id="XMLID_00000099663151116281110040000002751627995197691571_">
				<path class="st1" d="M135.8,33.8h5.4V37c0,1.6-0.6,2.9-1.6,4c-1,1.1-2.3,1.6-3.9,1.6c-1.2,0-2.2-0.3-3-0.9
					c-0.8-0.6-1.4-1.2-1.8-1.9c-0.1-0.2-0.2-0.5-0.3-0.7c-0.1-0.2-0.2-0.5-0.2-0.8c-0.1-0.6-0.2-1.9-0.2-3.7c0-1.8,0.1-3.1,0.2-3.7
					c0.1-0.6,0.3-1.1,0.5-1.5c0.4-0.7,1-1.4,1.8-1.9c0.8-0.6,1.8-0.9,3-0.9c1.5,0,2.7,0.5,3.6,1.4c0.9,0.9,1.5,2,1.8,3.3h-2.5
					c-0.2-0.6-0.5-1.2-1-1.6c-0.5-0.4-1.1-0.6-1.9-0.7c-0.5,0-1,0.1-1.4,0.3c-0.4,0.2-0.7,0.5-1,0.8c-0.3,0.3-0.5,0.8-0.6,1.3
					c-0.1,0.6-0.2,1.6-0.2,3.2s0.1,2.6,0.2,3.2c0.1,0.5,0.3,1,0.6,1.3c0.2,0.3,0.6,0.6,1,0.8c0.4,0.2,0.9,0.4,1.4,0.4
					c0.9,0,1.6-0.3,2.2-1c0.6-0.6,0.9-1.4,0.9-2.4V36h-3.1V33.8z"/>
			</g>
			<g id="XMLID_00000041291070108972500360000016731031869171037354_">
				<path class="st1" d="M144.3,26.7h2.2l6.9,11.2h0V26.7h2.3v15.8h-2.2l-6.9-11.2h0v11.2h-2.3V26.7z"/>
			</g>
		</g>
	</g>
</g>
</svg>
