<svg width="32" height="32" viewBox="0 0 32 32" fill="none" xmlns="http://www.w3.org/2000/svg">
<path d="M1.72335 15.0572L11.0567 5.72389C11.3082 5.48101 11.645 5.34662 11.9945 5.34966C12.3441 5.3527 12.6786 5.49292 12.9258 5.74013C13.173 5.98734 13.3132 6.32176 13.3162 6.67136C13.3193 7.02095 13.1849 7.35776 12.942 7.60923L5.88468 14.6666H29.3327C29.6863 14.6666 30.0254 14.807 30.2755 15.0571C30.5255 15.3071 30.666 15.6463 30.666 15.9999C30.666 16.3535 30.5255 16.6927 30.2755 16.9427C30.0254 17.1927 29.6863 17.3332 29.3327 17.3332H5.88468L12.942 24.3906C13.0694 24.5136 13.1709 24.6607 13.2408 24.8234C13.3107 24.986 13.3475 25.161 13.349 25.338C13.3506 25.5151 13.3168 25.6906 13.2498 25.8545C13.1827 26.0184 13.0837 26.1672 12.9585 26.2924C12.8334 26.4176 12.6845 26.5166 12.5206 26.5837C12.3568 26.6507 12.1812 26.6844 12.0041 26.6829C11.8271 26.6814 11.6521 26.6446 11.4895 26.5747C11.3268 26.5048 11.1797 26.4032 11.0567 26.2759L1.72335 16.9426C1.47338 16.6925 1.33297 16.3534 1.33297 15.9999C1.33297 15.6463 1.47338 15.3073 1.72335 15.0572Z" fill="black"/>
</svg>
