<svg width="32" height="32" viewBox="0 0 32 32" fill="none" xmlns="http://www.w3.org/2000/svg">
<path d="M30.2767 15.0572L20.9433 5.72389C20.6918 5.48101 20.355 5.34662 20.0055 5.34966C19.6559 5.3527 19.3214 5.49292 19.0742 5.74013C18.827 5.98734 18.6868 6.32176 18.6838 6.67136C18.6807 7.02095 18.8151 7.35776 19.058 7.60923L26.1153 14.6666H2.66732C2.3137 14.6666 1.97456 14.807 1.72451 15.0571C1.47446 15.3071 1.33398 15.6463 1.33398 15.9999C1.33398 16.3535 1.47446 16.6927 1.72451 16.9427C1.97456 17.1927 2.3137 17.3332 2.66732 17.3332H26.1153L19.058 24.3906C18.9306 24.5136 18.8291 24.6607 18.7592 24.8234C18.6893 24.986 18.6525 25.161 18.651 25.338C18.6494 25.5151 18.6832 25.6906 18.7502 25.8545C18.8173 26.0184 18.9163 26.1672 19.0415 26.2924C19.1666 26.4176 19.3155 26.5166 19.4794 26.5837C19.6432 26.6507 19.8188 26.6844 19.9959 26.6829C20.1729 26.6814 20.3479 26.6446 20.5105 26.5747C20.6732 26.5048 20.8203 26.4032 20.9433 26.2759L30.2767 16.9426C30.5266 16.6925 30.667 16.3534 30.667 15.9999C30.667 15.6463 30.5266 15.3073 30.2767 15.0572Z" fill="black"/>
</svg>
